<svg xmlns="http://www.w3.org/2000/svg" viewBox="0 0 80 80">
  <path d="M9 14C6.800781 14 5 15.800781 5 18L5 56C5 56.730469 5.214844 57.410156 5.5625 58L1 58L1 61C1 63.75 3.25 66 6 66L74 66C76.75 66 79 63.75 79 61L79 58L74.4375 58C74.785156 57.410156 75 56.730469 75 56L75 18C75 15.800781 73.199219 14 71 14 Z M 9 16L71 16C72.117188 16 73 16.882813 73 18L73 56C73 57.117188 72.117188 58 71 58L47 58L47 60L46 59C46 59.566406 45.566406 60 45 60L35 60C34.433594 60 34 59.566406 34 59L33 60L33 58L9 58C7.882813 58 7 57.117188 7 56L7 18C7 16.882813 7.882813 16 9 16 Z M 12 20C11.449219 20 11 20.449219 11 21C11 21.550781 11.449219 22 12 22C12.550781 22 13 21.550781 13 21C13 20.449219 12.550781 20 12 20 Z M 16 20C15.449219 20 15 20.449219 15 21C15 21.550781 15.449219 22 16 22C16.550781 22 17 21.550781 17 21C17 20.449219 16.550781 20 16 20 Z M 20 20C19.449219 20 19 20.449219 19 21C19 21.550781 19.449219 22 20 22C20.550781 22 21 21.550781 21 21C21 20.449219 20.550781 20 20 20 Z M 24 20C23.449219 20 23 20.449219 23 21C23 21.550781 23.449219 22 24 22C24.550781 22 25 21.550781 25 21C25 20.449219 24.550781 20 24 20 Z M 28 20C27.449219 20 27 20.449219 27 21C27 21.550781 27.449219 22 28 22C28.550781 22 29 21.550781 29 21C29 20.449219 28.550781 20 28 20 Z M 32 20C31.449219 20 31 20.449219 31 21C31 21.550781 31.449219 22 32 22C32.550781 22 33 21.550781 33 21C33 20.449219 32.550781 20 32 20 Z M 36 20C35.449219 20 35 20.449219 35 21C35 21.550781 35.449219 22 36 22C36.550781 22 37 21.550781 37 21C37 20.449219 36.550781 20 36 20 Z M 40 20C39.449219 20 39 20.449219 39 21C39 21.550781 39.449219 22 40 22C40.550781 22 41 21.550781 41 21C41 20.449219 40.550781 20 40 20 Z M 44 20C43.449219 20 43 20.449219 43 21C43 21.550781 43.449219 22 44 22C44.550781 22 45 21.550781 45 21C45 20.449219 44.550781 20 44 20 Z M 48 20C47.449219 20 47 20.449219 47 21C47 21.550781 47.449219 22 48 22C48.550781 22 49 21.550781 49 21C49 20.449219 48.550781 20 48 20 Z M 52 20C51.449219 20 51 20.449219 51 21C51 21.550781 51.449219 22 52 22C52.550781 22 53 21.550781 53 21C53 20.449219 52.550781 20 52 20 Z M 56 20C55.449219 20 55 20.449219 55 21C55 21.550781 55.449219 22 56 22C56.550781 22 57 21.550781 57 21C57 20.449219 56.550781 20 56 20 Z M 60 20C59.449219 20 59 20.449219 59 21C59 21.550781 59.449219 22 60 22C60.550781 22 61 21.550781 61 21C61 20.449219 60.550781 20 60 20 Z M 64 20C63.449219 20 63 20.449219 63 21C63 21.550781 63.449219 22 64 22C64.550781 22 65 21.550781 65 21C65 20.449219 64.550781 20 64 20 Z M 68 20C67.449219 20 67 20.449219 67 21C67 21.550781 67.449219 22 68 22C68.550781 22 69 21.550781 69 21C69 20.449219 68.550781 20 68 20 Z M 12 24C11.449219 24 11 24.449219 11 25C11 25.550781 11.449219 26 12 26C12.550781 26 13 25.550781 13 25C13 24.449219 12.550781 24 12 24 Z M 68 24C67.449219 24 67 24.449219 67 25C67 25.550781 67.449219 26 68 26C68.550781 26 69 25.550781 69 25C69 24.449219 68.550781 24 68 24 Z M 12 28C11.449219 28 11 28.449219 11 29C11 29.550781 11.449219 30 12 30C12.550781 30 13 29.550781 13 29C13 28.449219 12.550781 28 12 28 Z M 68 28C67.449219 28 67 28.449219 67 29C67 29.550781 67.449219 30 68 30C68.550781 30 69 29.550781 69 29C69 28.449219 68.550781 28 68 28 Z M 12 32C11.449219 32 11 32.449219 11 33C11 33.550781 11.449219 34 12 34C12.550781 34 13 33.550781 13 33C13 32.449219 12.550781 32 12 32 Z M 68 32C67.449219 32 67 32.449219 67 33C67 33.550781 67.449219 34 68 34C68.550781 34 69 33.550781 69 33C69 32.449219 68.550781 32 68 32 Z M 12 36C11.449219 36 11 36.449219 11 37C11 37.550781 11.449219 38 12 38C12.550781 38 13 37.550781 13 37C13 36.449219 12.550781 36 12 36 Z M 68 36C67.449219 36 67 36.449219 67 37C67 37.550781 67.449219 38 68 38C68.550781 38 69 37.550781 69 37C69 36.449219 68.550781 36 68 36 Z M 12 40C11.449219 40 11 40.449219 11 41C11 41.550781 11.449219 42 12 42C12.550781 42 13 41.550781 13 41C13 40.449219 12.550781 40 12 40 Z M 68 40C67.449219 40 67 40.449219 67 41C67 41.550781 67.449219 42 68 42C68.550781 42 69 41.550781 69 41C69 40.449219 68.550781 40 68 40 Z M 12 44C11.449219 44 11 44.449219 11 45C11 45.550781 11.449219 46 12 46C12.550781 46 13 45.550781 13 45C13 44.449219 12.550781 44 12 44 Z M 68 44C67.449219 44 67 44.449219 67 45C67 45.550781 67.449219 46 68 46C68.550781 46 69 45.550781 69 45C69 44.449219 68.550781 44 68 44 Z M 12 48C11.449219 48 11 48.449219 11 49C11 49.550781 11.449219 50 12 50C12.550781 50 13 49.550781 13 49C13 48.449219 12.550781 48 12 48 Z M 68 48C67.449219 48 67 48.449219 67 49C67 49.550781 67.449219 50 68 50C68.550781 50 69 49.550781 69 49C69 48.449219 68.550781 48 68 48 Z M 12 52C11.449219 52 11 52.449219 11 53C11 53.550781 11.449219 54 12 54C12.550781 54 13 53.550781 13 53C13 52.449219 12.550781 52 12 52 Z M 68 52C67.449219 52 67 52.449219 67 53C67 53.550781 67.449219 54 68 54C68.550781 54 69 53.550781 69 53C69 52.449219 68.550781 52 68 52 Z M 3 60L32.417969 60C32.859375 61.105469 33.742188 62 35 62L45 62C46.257813 62 47.140625 61.105469 47.582031 60L77 60L77 61C77 62.667969 75.667969 64 74 64L6 64C4.332031 64 3 62.667969 3 61Z" fill="#FFFFFF" />
</svg>