<svg xmlns="http://www.w3.org/2000/svg" viewBox="0 0 100 100">
  <path d="M21.984375 13.986328 A 1.0001 1.0001 0 0 0 21 15L21 17L8 17C6.9014686 17 6 17.901469 6 19C6 20.098531 6.9014686 21 8 21L21 21L21 24C19.35503 24 18 25.35503 18 27L18 28.119141C15.419397 28.621736 13.289242 30.688834 13.029297 33.414062C12.689964 36.964557 15.504757 40 19 40L29 40C32.166679 40 34.82729 42.083337 35.697266 44.958984C27.506518 49.850125 22 58.78953 22 69L22 78.5C22 79.874531 23.125469 81 24.5 81C25.874531 81 27 79.874531 27 78.5L27 75L34 75L34 82C34 84.197334 35.802666 86 38 86L62 86C64.197334 86 66 84.197334 66 82L66 75L73 75L73 78.5C73 79.874531 74.125469 81 75.5 81C76.874531 81 78 79.874531 78 78.5L78 69C78 58.78953 72.493482 49.850125 64.302734 44.958984C65.17271 42.083337 67.833321 40 71 40L80.785156 40C83.883581 40 86.670831 37.729757 86.970703 34.585938C87.241963 31.747701 85.496249 29.242082 83 28.349609L83 27C83 25.35503 81.64497 24 80 24L80 21L93 21C94.098531 21 95 20.098531 95 19C95 17.901469 94.098531 17 93 17L80 17L80 15 A 1.0001 1.0001 0 0 0 78.984375 13.986328 A 1.0001 1.0001 0 0 0 78 15L78 17L65 17C63.901469 17 63 17.901469 63 19C63 20.098531 63.901469 21 65 21L78 21L78 24C76.35503 24 75 25.35503 75 27L75 28L26 28L26 27C26 25.35503 24.64497 24 23 24L23 21L36 21C37.098531 21 38 20.098531 38 19C38 17.901469 37.098531 17 36 17L23 17L23 15 A 1.0001 1.0001 0 0 0 21.984375 13.986328 z M 8 18L21.832031 18 A 1.0001 1.0001 0 0 0 22.158203 18L36 18C36.557469 18 37 18.442531 37 19C37 19.557469 36.557469 20 36 20L22.154297 20 A 1.0001 1.0001 0 0 0 21.984375 19.986328 A 1.0001 1.0001 0 0 0 21.839844 20L8 20C7.4425314 20 7 19.557469 7 19C7 18.442531 7.4425314 18 8 18 z M 65 18L78.832031 18 A 1.0001 1.0001 0 0 0 79.158203 18L93 18C93.557469 18 94 18.442531 94 19C94 19.557469 93.557469 20 93 20L79.154297 20 A 1.0001 1.0001 0 0 0 78.984375 19.986328 A 1.0001 1.0001 0 0 0 78.839844 20L65 20C64.442531 20 64 19.557469 64 19C64 18.442531 64.442531 18 65 18 z M 21 26L21.832031 26 A 1.0001 1.0001 0 0 0 22.158203 26L23 26C23.56503 26 24 26.43497 24 27L24 28L20 28L20 27C20 26.43497 20.43497 26 21 26 z M 78 26L78.832031 26 A 1.0001 1.0001 0 0 0 79.158203 26L80 26C80.56503 26 81 26.43497 81 27L81 28L77 28L77 27C77 26.43497 77.43497 26 78 26 z M 19.214844 30L26 30L28 30L28 32.5C28 33.874985 29.125015 35 30.5 35C31.874985 35 33 33.874985 33 32.5L33 30L68 30L68 32.5C68 33.874985 69.125015 35 70.5 35C71.874985 35 73 33.874985 73 32.5L73 30L81 30C83.350757 30 85.211136 31.982978 84.980469 34.396484C84.784341 36.452664 82.908731 38 80.785156 38L71 38C66.041484 38 62 42.041484 62 47L62 49C62 49.56503 61.56503 50 61 50L39 50C38.43497 50 38 49.56503 38 49L38 47C38 42.041484 33.958516 38 29 38L19 38C16.649243 38 14.788864 36.017022 15.019531 33.603516C15.215659 31.547336 17.091269 30 19.214844 30 z M 29 30L32 30L32 32.5C32 33.335015 31.335015 34 30.5 34C29.664985 34 29 33.335015 29 32.5L29 30 z M 69 30L72 30L72 32.5C72 33.335015 71.335015 34 70.5 34C69.664985 34 69 33.335015 69 32.5L69 30 z M 35.919922 45.990234C35.967464 46.32084 36 46.655844 36 47L36 49C36 49.170261 36.022929 49.33518 36.050781 49.498047C29.974509 53.85626 26 60.970258 26 69L26 70.419922 A 0.50005 0.50005 0 0 0 26 70.582031L26 74.419922 A 0.50005 0.50005 0 0 0 26 74.582031L26 78.5C26 79.333469 25.333469 80 24.5 80C23.666531 80 23 79.333469 23 78.5L23 69C23 59.269015 28.181353 50.742872 35.919922 45.990234 z M 64.080078 45.990234C71.818647 50.742872 77 59.269015 77 69L77 78.5C77 79.333469 76.333469 80 75.5 80C74.666531 80 74 79.333469 74 78.5L74 74.580078 A 0.50005 0.50005 0 0 0 74 74.417969L74 70.580078 A 0.50005 0.50005 0 0 0 74 70.417969L74 69C74 60.970258 70.025491 53.85626 63.949219 49.498047C63.977071 49.33518 64 49.170261 64 49L64 47C64 46.655844 64.032536 46.32084 64.080078 45.990234 z M 41.5 47 A 0.50005 0.50005 0 1 0 41.5 48L53.5 48 A 0.50005 0.50005 0 1 0 53.5 47L41.5 47 z M 56.5 47 A 0.50005 0.50005 0 1 0 56.5 48L59.5 48 A 0.50005 0.50005 0 1 0 59.5 47L56.5 47 z M 36.40625 50.46875C36.925015 51.375276 37.890153 52 39 52L61 52C62.109847 52 63.074985 51.375276 63.59375 50.46875C69.29117 54.658961 73 61.398882 73 69L73 70L66 70L66 66C66 63.802666 64.197334 62 62 62L57.8125 62L56.220703 58.738281C55.71223 57.6936 54.752983 57 53.681641 57L46.316406 57C45.245064 57 44.286672 57.694216 43.777344 58.738281L42.1875 62L38 62C35.802666 62 34 63.802666 34 66L34 70L27 70L27 69C27 61.398882 30.70883 54.658961 36.40625 50.46875 z M 46.316406 58L53.681641 58C54.322298 58 54.950739 58.412462 55.322266 59.175781L56.699219 62L43.298828 62L44.675781 59.175781C45.048453 58.411847 45.675749 58 46.316406 58 z M 38 64L62 64C63.116666 64 64 64.883334 64 66L64 82C64 83.116666 63.116666 84 62 84L38 84C36.883334 84 36 83.116666 36 82L36 66C36 64.883334 36.883334 64 38 64 z M 50 66C45.58776 66 42 69.58776 42 74C42 78.41224 45.58776 82 50 82C53.477337 82 56.436217 79.771853 57.535156 76.666016 A 0.50005 0.50005 0 1 0 56.591797 76.333984C55.630736 79.050147 53.050663 81 50 81C46.12824 81 43 77.87176 43 74C43 70.12824 46.12824 67 50 67C50.818395 67 51.600528 67.146202 52.332031 67.40625 A 0.50005 0.50005 0 1 0 52.667969 66.464844C51.835472 66.168892 50.937605 66 50 66 z M 54.474609 67.519531 A 0.50005 0.50005 0 0 0 54.199219 68.421875C54.727465 68.82112 55.19791 69.280056 55.589844 69.800781 A 0.50005 0.50005 0 1 0 56.388672 69.199219C55.934606 68.595944 55.394535 68.073755 54.800781 67.625 A 0.50005 0.50005 0 0 0 54.474609 67.519531 z M 50 69C47.244499 69 45 71.244499 45 74C45 76.755501 47.244499 79 50 79C52.755501 79 55 76.755501 55 74C55 71.244499 52.755501 69 50 69 z M 50 70C52.215061 70 54 71.784939 54 74C54 76.215061 52.215061 78 50 78C47.784939 78 46 76.215061 46 74C46 73.591861 46.078683 73.206395 46.191406 72.835938C46.510624 73.519255 47.200507 74 48 74C49.098647 74 50 73.098647 50 72C50 71.200507 49.519255 70.510624 48.835938 70.191406C49.206395 70.078683 49.591861 70 50 70 z M 57.033203 70.994141 A 0.50005 0.50005 0 0 0 56.591797 71.666016C56.851407 72.399859 57 73.182364 57 74C57 74.141387 56.987973 74.29468 56.976562 74.466797 A 0.50012701 0.50012701 0 0 0 57.974609 74.533203C57.985206 74.373316 58 74.196613 58 74C58 73.061636 57.829546 72.166141 57.535156 71.333984 A 0.50005 0.50005 0 0 0 57.033203 70.994141 z M 27 71L34 71L34 74L27 74L27 71 z M 48 71C48.558207 71 49 71.441793 49 72C49 72.558207 48.558207 73 48 73C47.441793 73 47 72.558207 47 72C47 71.441793 47.441793 71 48 71 z M 66 71L73 71L73 74L66 74L66 71 z" fill="#FFFFFF" />
</svg>