<svg xmlns="http://www.w3.org/2000/svg" viewBox="0 0 80 80">
  <path d="M14 11C11.800781 11 10 12.800781 10 15L10 65C10 67.199219 11.800781 69 14 69L36 69L36 67L14 67C12.882813 67 12 66.117188 12 65L12 15C12 13.882813 12.882813 13 14 13L50 13C51.117188 13 52 13.882813 52 15L52 19L54 19L54 15C54 12.800781 52.199219 11 50 11 Z M 25 15C24.449219 15 24 15.449219 24 16C24 16.550781 24.449219 17 25 17C25.550781 17 26 16.550781 26 16C26 15.449219 25.550781 15 25 15 Z M 29 15C28.640625 14.996094 28.304688 15.183594 28.121094 15.496094C27.941406 15.808594 27.941406 16.191406 28.121094 16.503906C28.304688 16.816406 28.640625 17.003906 29 17L35 17C35.359375 17.003906 35.695313 16.816406 35.878906 16.503906C36.058594 16.191406 36.058594 15.808594 35.878906 15.496094C35.695313 15.183594 35.359375 14.996094 35 15 Z M 42 21C39.800781 21 38 22.800781 38 25L38 67C38 69.199219 39.800781 71 42 71L66 71C68.199219 71 70 69.199219 70 67L70 25C70 22.800781 68.199219 21 66 21 Z M 42 23L66 23C67.117188 23 68 23.882813 68 25L68 67C68 68.117188 67.117188 69 66 69L42 69C40.882813 69 40 68.117188 40 67L40 25C40 23.882813 40.882813 23 42 23 Z M 48 25C47.449219 25 47 25.449219 47 26C47 26.550781 47.449219 27 48 27C48.550781 27 49 26.550781 49 26C49 25.449219 48.550781 25 48 25 Z M 52 25C51.640625 24.996094 51.304688 25.183594 51.121094 25.496094C50.941406 25.808594 50.941406 26.191406 51.121094 26.503906C51.304688 26.816406 51.640625 27.003906 52 27L56 27C56.359375 27.003906 56.695313 26.816406 56.878906 26.503906C57.058594 26.191406 57.058594 25.808594 56.878906 25.496094C56.695313 25.183594 56.359375 24.996094 56 25 Z M 32 60C30.894531 60 30 60.894531 30 62C30 63.105469 30.894531 64 32 64C33.105469 64 34 63.105469 34 62C34 60.894531 33.105469 60 32 60 Z M 54 63C52.894531 63 52 63.894531 52 65C52 66.105469 52.894531 67 54 67C55.105469 67 56 66.105469 56 65C56 63.894531 55.105469 63 54 63Z" fill="#FFFFFF" />
</svg>