<svg xmlns="http://www.w3.org/2000/svg" viewBox="0 0 80 80">
  <path d="M17 14C13.285156 14 10.242188 16.921875 10.019531 20.582031C7.082031 21.769531 5 24.644531 5 28L5 58C5 62.40625 8.59375 66 13 66L29.492188 66C32.066406 66 34.4375 64.585938 35.65625 62.316406L36.363281 61L43.632813 61L44.34375 62.316406L44.34375 62.320313C45.5625 64.585938 47.933594 66 50.507813 66L67 66C71.40625 66 75 62.40625 75 58L75 28C75 24.644531 72.917969 21.769531 69.980469 20.582031C69.757813 16.921875 66.714844 14 63 14 Z M 17 16L63 16C65.449219 16 67.46875 17.738281 67.90625 20.054688C67.609375 20.019531 67.308594 20 67 20L13 20C12.691406 20 12.390625 20.019531 12.09375 20.054688C12.53125 17.738281 14.550781 16 17 16 Z M 13 22L67 22C70.324219 22 73 24.675781 73 28L73 58C73 61.324219 70.324219 64 67 64L50.507813 64C48.667969 64 46.976563 62.992188 46.105469 61.371094L42.355469 54.40625C41.886719 53.542969 40.980469 53 40 53C39.019531 53 38.113281 53.542969 37.644531 54.40625L33.894531 61.371094C33.023438 62.992188 31.332031 64 29.492188 64L13 64C9.675781 64 7 61.324219 7 58L7 28C7 24.675781 9.675781 22 13 22 Z M 12 25C11.449219 25 11 25.449219 11 26C11 26.550781 11.449219 27 12 27C12.550781 27 13 26.550781 13 26C13 25.449219 12.550781 25 12 25 Z M 16 25C15.449219 25 15 25.449219 15 26C15 26.550781 15.449219 27 16 27C16.550781 27 17 26.550781 17 26C17 25.449219 16.550781 25 16 25 Z M 20 25C19.449219 25 19 25.449219 19 26C19 26.550781 19.449219 27 20 27C20.550781 27 21 26.550781 21 26C21 25.449219 20.550781 25 20 25 Z M 24 25C23.449219 25 23 25.449219 23 26C23 26.550781 23.449219 27 24 27C24.550781 27 25 26.550781 25 26C25 25.449219 24.550781 25 24 25 Z M 28 25C27.449219 25 27 25.449219 27 26C27 26.550781 27.449219 27 28 27C28.550781 27 29 26.550781 29 26C29 25.449219 28.550781 25 28 25 Z M 32 25C31.449219 25 31 25.449219 31 26C31 26.550781 31.449219 27 32 27C32.550781 27 33 26.550781 33 26C33 25.449219 32.550781 25 32 25 Z M 36 25C35.449219 25 35 25.449219 35 26C35 26.550781 35.449219 27 36 27C36.550781 27 37 26.550781 37 26C37 25.449219 36.550781 25 36 25 Z M 40 25C39.449219 25 39 25.449219 39 26C39 26.550781 39.449219 27 40 27C40.550781 27 41 26.550781 41 26C41 25.449219 40.550781 25 40 25 Z M 44 25C43.449219 25 43 25.449219 43 26C43 26.550781 43.449219 27 44 27C44.550781 27 45 26.550781 45 26C45 25.449219 44.550781 25 44 25 Z M 48 25C47.449219 25 47 25.449219 47 26C47 26.550781 47.449219 27 48 27C48.550781 27 49 26.550781 49 26C49 25.449219 48.550781 25 48 25 Z M 52 25C51.449219 25 51 25.449219 51 26C51 26.550781 51.449219 27 52 27C52.550781 27 53 26.550781 53 26C53 25.449219 52.550781 25 52 25 Z M 56 25C55.449219 25 55 25.449219 55 26C55 26.550781 55.449219 27 56 27C56.550781 27 57 26.550781 57 26C57 25.449219 56.550781 25 56 25 Z M 60 25C59.449219 25 59 25.449219 59 26C59 26.550781 59.449219 27 60 27C60.550781 27 61 26.550781 61 26C61 25.449219 60.550781 25 60 25 Z M 64 25C63.449219 25 63 25.449219 63 26C63 26.550781 63.449219 27 64 27C64.550781 27 65 26.550781 65 26C65 25.449219 64.550781 25 64 25 Z M 68 25C67.449219 25 67 25.449219 67 26C67 26.550781 67.449219 27 68 27C68.550781 27 69 26.550781 69 26C69 25.449219 68.550781 25 68 25 Z M 24 34C19.042969 34 15 38.042969 15 43C15 47.957031 19.042969 52 24 52C28.957031 52 33 47.957031 33 43C33 38.042969 28.957031 34 24 34 Z M 56 34C51.042969 34 47 38.042969 47 43C47 47.957031 51.042969 52 56 52C60.957031 52 65 47.957031 65 43C65 38.042969 60.957031 34 56 34 Z M 24 36C27.878906 36 31 39.121094 31 43C31 46.878906 27.878906 50 24 50C20.121094 50 17 46.878906 17 43C17 39.121094 20.121094 36 24 36 Z M 56 36C59.878906 36 63 39.121094 63 43C63 46.878906 59.878906 50 56 50C52.121094 50 49 46.878906 49 43C49 39.121094 52.121094 36 56 36 Z M 40 55C40.25 55 40.476563 55.132813 40.59375 55.355469L42.558594 59L37.441406 59L39.40625 55.355469C39.523438 55.132813 39.75 55 40 55 Z M 11 59C10.449219 59 10 59.449219 10 60C10 60.550781 10.449219 61 11 61C11.550781 61 12 60.550781 12 60C12 59.449219 11.550781 59 11 59 Z M 15 59C14.449219 59 14 59.449219 14 60C14 60.550781 14.449219 61 15 61C15.550781 61 16 60.550781 16 60C16 59.449219 15.550781 59 15 59 Z M 19 59C18.449219 59 18 59.449219 18 60C18 60.550781 18.449219 61 19 61C19.550781 61 20 60.550781 20 60C20 59.449219 19.550781 59 19 59 Z M 23 59C22.449219 59 22 59.449219 22 60C22 60.550781 22.449219 61 23 61C23.550781 61 24 60.550781 24 60C24 59.449219 23.550781 59 23 59 Z M 27 59C26.449219 59 26 59.449219 26 60C26 60.550781 26.449219 61 27 61C27.550781 61 28 60.550781 28 60C28 59.449219 27.550781 59 27 59 Z M 31 59C30.449219 59 30 59.449219 30 60C30 60.550781 30.449219 61 31 61C31.550781 61 32 60.550781 32 60C32 59.449219 31.550781 59 31 59 Z M 49 59C48.449219 59 48 59.449219 48 60C48 60.550781 48.449219 61 49 61C49.550781 61 50 60.550781 50 60C50 59.449219 49.550781 59 49 59 Z M 53 59C52.449219 59 52 59.449219 52 60C52 60.550781 52.449219 61 53 61C53.550781 61 54 60.550781 54 60C54 59.449219 53.550781 59 53 59 Z M 57 59C56.449219 59 56 59.449219 56 60C56 60.550781 56.449219 61 57 61C57.550781 61 58 60.550781 58 60C58 59.449219 57.550781 59 57 59 Z M 61 59C60.449219 59 60 59.449219 60 60C60 60.550781 60.449219 61 61 61C61.550781 61 62 60.550781 62 60C62 59.449219 61.550781 59 61 59 Z M 65 59C64.449219 59 64 59.449219 64 60C64 60.550781 64.449219 61 65 61C65.550781 61 66 60.550781 66 60C66 59.449219 65.550781 59 65 59 Z M 69 59C68.449219 59 68 59.449219 68 60C68 60.550781 68.449219 61 69 61C69.550781 61 70 60.550781 70 60C70 59.449219 69.550781 59 69 59Z" fill="#FFFFFF" />
</svg>